<?xml version="1.0" encoding="utf-8"?>
<!-- Generator: Adobe Illustrator 25.0.0, SVG Export Plug-In . SVG Version: 6.00 Build 0)  -->
<svg version="1.1" id="Layer_1" xmlns="http://www.w3.org/2000/svg" xmlns:xlink="http://www.w3.org/1999/xlink" x="0px" y="0px"
	 viewBox="0 0 773.8 202.4" style="enable-background:new 0 0 773.8 202.4;" xml:space="preserve">
<style type="text/css">
	.st0{fill:url(#SVGID_1_);stroke:#000000;stroke-width:5;stroke-miterlimit:10;}
	.st1{fill-rule:evenodd;clip-rule:evenodd;}
</style>
<g transform="translate(-26.673831939697266, 123.42968463897705)">
	
		<linearGradient id="SVGID_1_" gradientUnits="userSpaceOnUse" x1="-124.6063" y1="513.4944" x2="-123.6063" y2="513.4944" gradientTransform="matrix(531.95 0 0 -96.86 66525.9531 49716.1992)">
		<stop  offset="0" style="stop-color:#000000"/>
		<stop  offset="1" style="stop-color:#000000"/>
	</linearGradient>
	<path class="st0" d="M304.4-64.6l-38.9,28.3l39,36.4l0,0c0.9,0.8,1.3,1.7,1.3,2.7l0,0l0,0c0,0.7-0.2,1.3-0.7,1.7l0,0l0,0
		c-0.4,0.5-1,0.7-1.7,0.7l0,0l0,0c-0.8,0-1.5-0.3-2.2-1l0,0l-40-37.8l-13.8,9.1v25l0,0c0,1.3-0.2,2.4-0.6,3.3l0,0l0,0
		c-0.4,0.9-1.1,1.4-2.2,1.4l0,0l0,0c-1.3,0-2.1-0.5-2.4-1.4l0,0l0,0c-0.3-0.9-0.5-2-0.5-3.2l0,0v-65.6l0,0c0-1.3,0.2-2.3,0.6-3.2
		l0,0l0,0c0.4-0.8,1.2-1.2,2.5-1.2l0,0l0,0c1.1,0,1.8,0.4,2.1,1.3l0,0l0,0c0.4,0.8,0.5,1.8,0.5,3l0,0v35.2L301-68.3l0,0
		c0.5-0.4,1-0.6,1.4-0.8l0,0l0,0c0.5-0.2,0.9-0.2,1.2-0.2l0,0l0,0c0.7,0,1.3,0.2,1.6,0.6l0,0l0,0c0.4,0.4,0.6,0.9,0.6,1.5l0,0l0,0
		C305.8-66.2,305.4-65.3,304.4-64.6L304.4-64.6z M330-42.1V1l0,0c0,0.6,0,1.1-0.1,1.6l0,0l0,0c0,0.5-0.1,1-0.3,1.3l0,0l0,0
		c-0.2,0.4-0.4,0.7-0.8,0.9l0,0l0,0c-0.4,0.2-0.9,0.3-1.5,0.3l0,0l0,0c-1.3,0-2-0.4-2.3-1.1l0,0l0,0c-0.3-0.8-0.4-1.8-0.4-3.1l0,0
		v-43l0,0c0-1.1,0.2-2.1,0.5-2.9l0,0l0,0c0.3-0.8,1.1-1.2,2.3-1.2l0,0l0,0c1.1,0,1.8,0.4,2.1,1.2l0,0l0,0
		C329.8-44,330-43.1,330-42.1L330-42.1z M323.8-61.1L323.8-61.1L323.8-61.1c0-1,0.3-1.9,1-2.6l0,0l0,0c0.7-0.7,1.5-1,2.5-1l0,0l0,0
		c1,0,1.9,0.3,2.6,1l0,0l0,0c0.7,0.7,1.1,1.5,1.1,2.6l0,0l0,0c0,1-0.4,1.9-1.1,2.5l0,0l0,0c-0.7,0.6-1.6,0.9-2.6,0.9l0,0l0,0
		c-1,0-1.9-0.3-2.5-0.9l0,0l0,0C324.1-59.3,323.8-60.1,323.8-61.1z M359.4-45h22.2l0,0c0.7,0,1.2,0.2,1.5,0.5l0,0l0,0
		c0.3,0.3,0.5,0.7,0.5,1.1l0,0l0,0c0,0.4-0.2,0.8-0.5,1.1l0,0l0,0c-0.3,0.3-0.8,0.5-1.5,0.5l0,0h-22.2v28.4l0,0c0,3.3,0.3,5.9,1,7.9
		l0,0l0,0c0.7,2,1.6,3.6,2.7,4.7l0,0l0,0c1.1,1.1,2.5,1.9,4,2.2l0,0l0,0c1.5,0.4,3.2,0.6,4.9,0.6l0,0l0,0c2.1,0,4.2-0.4,6.3-1.1l0,0
		l0,0c2.1-0.8,4.4-1.8,7.1-3.3l0,0l0,0c0.5-0.3,1-0.4,1.5-0.4l0,0l0,0c0.6,0,1,0.2,1.4,0.5l0,0l0,0c0.3,0.3,0.5,0.7,0.5,1.2l0,0l0,0
		c0,0.9-0.5,1.6-1.5,2.1l0,0l0,0c-1.9,1-3.5,1.8-5,2.5l0,0l0,0c-1.5,0.6-2.8,1.1-4,1.5l0,0l0,0c-1.2,0.4-2.4,0.6-3.6,0.7l0,0l0,0
		c-1.2,0.1-2.4,0.2-3.7,0.2l0,0l0,0c-2.4,0-4.6-0.3-6.7-1l0,0l0,0c-2.1-0.7-3.9-1.8-5.4-3.2l0,0l0,0c-1.5-1.5-2.7-3.5-3.6-5.9l0,0
		l0,0c-0.9-2.5-1.3-5.5-1.3-9.1l0,0v-28.4h-5.9l0,0c-0.6,0-1.1-0.2-1.4-0.5l0,0l0,0c-0.3-0.3-0.5-0.7-0.5-1.1l0,0l0,0
		c0-0.4,0.2-0.8,0.5-1.1l0,0l0,0c0.3-0.3,0.8-0.5,1.4-0.5l0,0h5.9v-16.6l0,0c0-1.4,0.3-2.3,0.9-2.7l0,0l0,0c0.6-0.4,1.2-0.6,1.8-0.6
		l0,0l0,0c0.8,0,1.4,0.2,1.9,0.6l0,0l0,0c0.5,0.4,0.8,1.3,0.8,2.7l0,0V-45z M407.1-45h22.2l0,0c0.7,0,1.2,0.2,1.5,0.5l0,0l0,0
		c0.3,0.3,0.5,0.7,0.5,1.1l0,0l0,0c0,0.4-0.2,0.8-0.5,1.1l0,0l0,0c-0.3,0.3-0.8,0.5-1.5,0.5l0,0h-22.2v28.4l0,0c0,3.3,0.3,5.9,1,7.9
		l0,0l0,0c0.7,2,1.6,3.6,2.7,4.7l0,0l0,0c1.1,1.1,2.5,1.9,4,2.2l0,0l0,0c1.5,0.4,3.2,0.6,4.9,0.6l0,0l0,0c2.1,0,4.2-0.4,6.3-1.1l0,0
		l0,0c2.1-0.8,4.4-1.8,7.1-3.3l0,0l0,0c0.5-0.3,1-0.4,1.5-0.4l0,0l0,0c0.6,0,1,0.2,1.4,0.5l0,0l0,0c0.3,0.3,0.5,0.7,0.5,1.2l0,0l0,0
		c0,0.9-0.5,1.6-1.5,2.1l0,0l0,0c-1.9,1-3.5,1.8-5,2.5l0,0l0,0c-1.5,0.6-2.8,1.1-4,1.5l0,0l0,0c-1.2,0.4-2.4,0.6-3.6,0.7l0,0l0,0
		c-1.2,0.1-2.4,0.2-3.7,0.2l0,0l0,0c-2.4,0-4.7-0.3-6.7-1l0,0l0,0c-2.1-0.7-3.9-1.8-5.4-3.2l0,0l0,0c-1.5-1.5-2.7-3.5-3.6-5.9l0,0
		l0,0c-0.9-2.5-1.3-5.5-1.3-9.1l0,0v-28.4h-5.9l0,0c-0.6,0-1.1-0.2-1.4-0.5l0,0l0,0c-0.3-0.3-0.5-0.7-0.5-1.1l0,0l0,0
		c0-0.4,0.2-0.8,0.5-1.1l0,0l0,0c0.3-0.3,0.8-0.5,1.4-0.5l0,0h5.9v-16.6l0,0c0-1.4,0.3-2.3,0.9-2.7l0,0l0,0c0.6-0.4,1.2-0.6,1.8-0.6
		l0,0l0,0c0.8,0,1.4,0.2,1.9,0.6l0,0l0,0c0.5,0.4,0.8,1.3,0.8,2.7l0,0V-45z M476.4,23.6L476.4,23.6L476.4,23.6
		c4.6,0,8.4-0.5,11.5-1.5l0,0l0,0c3.1-1,5.5-2.6,7.4-5l0,0l0,0c1.9-2.3,3.2-5.3,4-9.2l0,0l0,0c0.8-3.8,1.2-8.5,1.2-14.1l0,0l0,0
		c-0.5,1.8-1.3,3.4-2.4,4.7l0,0l0,0c-1.1,1.3-2.4,2.4-4,3.3l0,0l0,0c-1.5,0.9-3.2,1.6-5,2.1l0,0l0,0c-1.8,0.5-3.6,0.9-5.5,1.2l0,0
		l0,0c-1.9,0.3-3.7,0.5-5.5,0.6l0,0l0,0c-1.8,0.1-3.5,0.1-5,0.1l0,0l0,0c-4.8,0-8.9-0.4-12.2-1.3l0,0l0,0c-3.3-0.9-6-2.3-8-4.4l0,0
		l0,0c-2.1-2.1-3.5-4.8-4.5-8.2l0,0l0,0c-0.9-3.4-1.4-7.6-1.4-12.6l0,0v-20.5l0,0c0-0.6,0-1.2,0.1-1.7l0,0l0,0
		c0-0.6,0.1-1.1,0.3-1.5l0,0l0,0c0.2-0.4,0.4-0.8,0.8-1.1l0,0l0,0c0.3-0.3,0.8-0.4,1.4-0.4l0,0l0,0c0.7,0,1.2,0.1,1.5,0.4l0,0l0,0
		c0.4,0.3,0.6,0.7,0.8,1.1l0,0l0,0c0.2,0.4,0.3,1,0.3,1.5l0,0l0,0c0,0.6,0.1,1.2,0.1,1.7l0,0v20.5l0,0c0,4.4,0.3,8,0.8,10.9l0,0l0,0
		c0.6,2.9,1.6,5.2,3.1,7l0,0l0,0c1.5,1.7,3.6,3,6.3,3.7l0,0l0,0c2.7,0.7,6.2,1.1,10.4,1.1l0,0l0,0c2.5,0,5.3-0.2,8.2-0.5l0,0l0,0
		c2.9-0.4,5.7-1,8.3-1.9l0,0l0,0c2.6-0.9,4.9-2.2,6.9-3.9l0,0l0,0c2-1.7,3.4-3.8,4.1-6.4l0,0v-30.4l0,0c0-0.6,0-1.2,0.1-1.7l0,0l0,0
		c0.1-0.6,0.2-1.1,0.4-1.5l0,0l0,0c0.2-0.4,0.4-0.8,0.8-1.1l0,0l0,0c0.3-0.3,0.8-0.4,1.3-0.4l0,0l0,0c0.7,0,1.2,0.1,1.5,0.4l0,0l0,0
		c0.4,0.3,0.6,0.7,0.8,1.1l0,0l0,0c0.2,0.4,0.3,1,0.4,1.5l0,0l0,0c0,0.6,0.1,1.2,0.1,1.7l0,0v32.8l0,0c0,6.9-0.5,12.6-1.6,17.2l0,0
		l0,0c-1.1,4.6-2.8,8.3-5.2,11.1l0,0l0,0c-2.4,2.8-5.4,4.8-9.1,5.9l0,0l0,0c-3.7,1.2-8.2,1.7-13.5,1.7l0,0l0,0
		c-3.7,0-6.9-0.2-9.5-0.6l0,0l0,0c-2.6-0.4-4.7-0.9-6.5-1.5l0,0l0,0c-1.8-0.6-3.2-1.3-4.4-2l0,0l0,0c-1.2-0.8-2.2-1.5-3-2.2l0,0l0,0
		c-0.4-0.4-0.5-0.8-0.5-1.3l0,0l0,0c0-0.6,0.2-1.1,0.5-1.6l0,0l0,0c0.3-0.4,0.9-0.6,1.6-0.6l0,0l0,0c0.4,0,0.7,0.1,1.1,0.4l0,0l0,0
		c0.8,0.6,1.8,1.3,3,1.9l0,0l0,0c1.1,0.6,2.5,1.2,4.2,1.7l0,0l0,0c1.6,0.5,3.5,0.9,5.8,1.3l0,0l0,0
		C470.8,23.5,473.4,23.6,476.4,23.6z M572.8-66.8L572.8-66.8L572.8-66.8c0,0.9-0.3,1.4-0.9,1.6l0,0l0,0c-0.6,0.2-1.4,0.3-2.4,0.3
		l0,0h-37.4V0.3l0,0c0,0.7,0,1.3-0.1,1.9l0,0l0,0c0,0.6-0.2,1.1-0.4,1.6l0,0l0,0c-0.2,0.5-0.5,0.8-0.8,1.1l0,0l0,0
		c-0.4,0.3-0.9,0.4-1.5,0.4l0,0l0,0c-1.2,0-1.9-0.5-2.3-1.5l0,0l0,0c-0.4-1-0.6-2.1-0.6-3.4l0,0v-65.2h-37.5l0,0
		c-1,0-1.8-0.1-2.5-0.3l0,0l0,0c-0.7-0.2-1-0.7-1-1.6l0,0l0,0c0-0.7,0.2-1.2,0.5-1.5l0,0l0,0c0.3-0.3,0.7-0.6,1.2-0.7l0,0l0,0
		c0.5-0.1,1-0.2,1.6-0.2l0,0l0,0c0.6,0,1.2,0,1.7,0l0,0H568l0,0c0.7,0,1.3,0,1.9,0l0,0l0,0c0.6,0,1.1,0.1,1.5,0.2l0,0l0,0
		c0.4,0.1,0.8,0.4,1,0.7l0,0l0,0C572.7-68,572.8-67.5,572.8-66.8z M592.1-43.4L592.1-43.4L592.1-43.4c-4.1,0-7.8,0.4-11,1.1l0,0l0,0
		c-3.2,0.7-5.9,1.9-8.2,3.4l0,0l0,0c-2.3,1.6-4,3.6-5.2,6.1l0,0l0,0c-1.2,2.5-2,5.6-2.1,9.2l0,0h50.4v-3.6l0,0
		c0-2.2-0.4-4.3-1.2-6.3l0,0l0,0c-0.8-2-2.2-3.7-4-5.2l0,0l0,0c-1.9-1.5-4.3-2.6-7.4-3.5l0,0l0,0C600.2-43,596.5-43.4,592.1-43.4z
		 M588.6,1.9L588.6,1.9L588.6,1.9c4.2,0,7.9-0.3,11.1-0.8l0,0l0,0c3.2-0.5,5.9-1.2,8.2-1.9l0,0l0,0c2.3-0.8,4.1-1.5,5.6-2.3l0,0l0,0
		c1.4-0.8,2.6-1.5,3.4-2l0,0l0,0c0.3-0.1,0.5-0.1,0.5-0.1l0,0l0,0c0.5,0,0.9,0.2,1.4,0.7l0,0l0,0c0.4,0.5,0.6,1,0.6,1.5l0,0l0,0
		c0,0.5-0.2,0.9-0.7,1.2l0,0l0,0c-0.4,0.4-1.3,1-2.6,1.9l0,0l0,0c-1.3,0.8-3.2,1.7-5.6,2.6l0,0l0,0c-2.5,0.9-5.5,1.6-9.1,2.3l0,0
		l0,0c-3.6,0.7-7.9,1-12.8,1l0,0l0,0c-5.2,0-9.6-0.6-13.2-1.9l0,0l0,0c-3.6-1.3-6.6-3.1-8.8-5.4l0,0l0,0c-2.3-2.3-3.9-5.1-5-8.4l0,0
		l0,0c-1-3.3-1.5-6.8-1.5-10.7l0,0l0,0c0-5.2,0.8-9.5,2.5-12.9l0,0l0,0c1.6-3.4,3.9-6.2,6.8-8.3l0,0l0,0c2.9-2.1,6.3-3.5,10.2-4.4
		l0,0l0,0c3.9-0.8,8.1-1.3,12.6-1.3l0,0l0,0c9.3,0,16.2,1.8,20.8,5.3l0,0l0,0c4.6,3.5,6.9,8.6,6.9,15.2l0,0l0,0c0,0.6,0,1.3-0.1,2.1
		l0,0l0,0c-0.1,0.8-0.2,1.5-0.4,2.2l0,0l0,0c-0.2,0.7-0.3,1.3-0.5,1.7l0,0l0,0c-0.2,0.5-0.4,0.7-0.6,0.7l0,0h-19.7l-33.2-0.7l0,0
		c0.1,4.1,0.6,7.7,1.6,10.5l0,0l0,0c1,2.9,2.5,5.2,4.4,7l0,0l0,0c1.9,1.8,4.3,3.1,7.2,3.9l0,0l0,0C581.5,1.5,584.8,1.9,588.6,1.9z
		 M669.6-43.4L669.6-43.4L669.6-43.4c-5.1,0-9.5,0.4-13.1,1.3l0,0l0,0c-3.6,0.8-6.6,2.2-8.9,4l0,0l0,0c-2.3,1.8-4,4.2-5,7.1l0,0l0,0
		c-1.1,2.9-1.6,6.4-1.6,10.4l0,0l0,0c0,4.1,0.6,7.6,1.8,10.4l0,0l0,0c1.2,2.9,3,5.2,5.4,7l0,0l0,0c2.4,1.8,5.4,3.1,8.9,3.9l0,0l0,0
		c3.6,0.8,7.7,1.2,12.5,1.2l0,0l0,0c2.1,0,4.3-0.2,6.5-0.5l0,0l0,0c2.2-0.3,4.3-0.7,6.3-1.2l0,0l0,0c2-0.5,3.9-1,5.6-1.6l0,0l0,0
		c1.7-0.6,3.1-1.1,4.1-1.7l0,0l0,0c0.7-0.2,1.1-0.3,1.4-0.3l0,0l0,0c0.6,0,1,0.2,1.4,0.5l0,0l0,0c0.3,0.3,0.5,0.7,0.5,1.2l0,0l0,0
		c0,0.4-0.1,0.7-0.3,1.1l0,0l0,0c-0.2,0.4-0.6,0.7-1.1,1l0,0l0,0c-3.9,2-8,3.4-12.2,4.2l0,0l0,0c-4.2,0.8-8.2,1.2-12.2,1.2l0,0l0,0
		c-5.1,0-9.7-0.4-13.9-1.2l0,0l0,0c-4.2-0.8-7.7-2.2-10.7-4.2l0,0l0,0c-3-2-5.3-4.7-6.9-8.1l0,0l0,0c-1.6-3.4-2.5-7.7-2.5-12.9l0,0
		l0,0c0-5.2,0.8-9.5,2.3-12.9l0,0l0,0c1.5-3.4,3.7-6.2,6.6-8.3l0,0l0,0c2.9-2.1,6.5-3.5,10.7-4.4l0,0l0,0c4.2-0.8,9-1.3,14.4-1.3
		l0,0l0,0c3.9,0,8,0.4,12.2,1.2l0,0l0,0c4.2,0.8,8.3,2.2,12.2,4.2l0,0l0,0c0.5,0.3,0.8,0.6,1.1,1l0,0l0,0c0.2,0.4,0.3,0.8,0.3,1.1
		l0,0l0,0c0,0.5-0.2,0.9-0.5,1.2l0,0l0,0c-0.3,0.3-0.8,0.5-1.4,0.5l0,0l0,0c-0.3,0-0.7-0.1-1.4-0.3l0,0l0,0
		c-1.1-0.5-2.4-1.1-4.1-1.7l0,0l0,0c-1.7-0.6-3.6-1.1-5.6-1.6l0,0l0,0c-2-0.5-4.1-0.9-6.3-1.2l0,0l0,0
		C673.8-43.3,671.6-43.4,669.6-43.4z M773.6-22.7V0.4l0,0c0,0.6,0,1.2-0.1,1.7l0,0l0,0c-0.1,0.6-0.2,1.1-0.4,1.5l0,0l0,0
		c-0.2,0.4-0.4,0.8-0.8,1.1l0,0l0,0c-0.3,0.3-0.8,0.4-1.3,0.4l0,0l0,0c-0.7,0-1.2-0.1-1.5-0.4l0,0l0,0c-0.4-0.3-0.6-0.7-0.8-1.1l0,0
		l0,0c-0.2-0.4-0.3-1-0.4-1.5l0,0l0,0c0-0.6-0.1-1.2-0.1-1.7l0,0v-23.1l0,0c0-3.5-0.3-6.5-0.8-9.1l0,0l0,0c-0.5-2.6-1.5-4.7-3-6.4
		l0,0l0,0c-1.5-1.7-3.6-3-6.2-3.9l0,0l0,0c-2.7-0.8-6.2-1.3-10.4-1.3l0,0l0,0c-2.6,0-5.4,0.2-8.4,0.6l0,0l0,0
		c-3,0.4-5.8,1.2-8.5,2.2l0,0l0,0c-2.7,1-5.1,2.4-7.2,4.2l0,0l0,0c-2.1,1.7-3.5,3.9-4.4,6.6l0,0V0.4l0,0c0,0.6,0,1.2-0.1,1.7l0,0
		l0,0c-0.1,0.6-0.2,1.1-0.4,1.5l0,0l0,0c-0.2,0.4-0.4,0.8-0.8,1.1l0,0l0,0c-0.3,0.3-0.8,0.4-1.3,0.4l0,0l0,0c-0.6,0-1.1-0.1-1.5-0.4
		l0,0l0,0c-0.4-0.3-0.7-0.7-0.9-1.1l0,0l0,0c-0.2-0.4-0.3-1-0.4-1.5l0,0l0,0c0-0.6-0.1-1.2-0.1-1.7l0,0v-65l0,0c0-0.5,0-1.1,0.1-1.6
		l0,0l0,0c0-0.6,0.2-1.1,0.4-1.5l0,0l0,0c0.2-0.4,0.5-0.8,0.9-1.1l0,0l0,0c0.4-0.3,0.9-0.4,1.5-0.4l0,0l0,0c0.5,0,1,0.1,1.3,0.4l0,0
		l0,0c0.3,0.3,0.6,0.6,0.8,1.1l0,0l0,0c0.2,0.4,0.3,1,0.4,1.5l0,0l0,0c0.1,0.6,0.1,1.1,0.1,1.7l0,0v30.1l0,0
		c0.5-1.8,1.3-3.3,2.5-4.7l0,0l0,0c1.2-1.3,2.6-2.5,4.2-3.4l0,0l0,0c1.6-1,3.3-1.7,5.2-2.3l0,0l0,0c1.9-0.6,3.8-1.1,5.8-1.4l0,0l0,0
		c1.9-0.4,3.8-0.6,5.7-0.7l0,0l0,0c1.9-0.1,3.5-0.2,5.1-0.2l0,0l0,0c4.8,0,8.9,0.4,12.2,1.2l0,0l0,0c3.3,0.8,6,2.2,8,4.1l0,0l0,0
		c2,1.9,3.5,4.5,4.4,7.6l0,0l0,0C773.1-31.3,773.6-27.4,773.6-22.7L773.6-22.7z"/>
</g>
<g>
	<path id="path1891_1_" class="st1" d="M86.4,140.1h44.1c0-6.3-0.4-7.5-10.8-7.5c1.7-5,8.4-17,12.2-17c3.3,0,7.3,0.2,7.3,7.7
		c0,8.6,14.5,22.4,18,16.8c5.2-8.4-9-5.9-9-26.2c0-27.8,16.2-23.8,16.2-39.4c0-7.8-2.2-8.9-2.2-14.4c0-7.4,6.5-7,5.2-13.1
		c-0.9-4.2-1.6-7.6-2.1-12.7c-0.4-3.6-0.5-7.5-4.2-7.3c-4.4,0.2-6.1,8-13,8.5c-6.9,0.6-12.7-5.8-15.4-4.9c-2.6,0.9-1.8,8.1-0.2,13.1
		c2.5,8,7.8,18.4-2,19.9c-9.8,1.6-26.5,3.1-38.7,19.1s-11.7,34.8-16.4,40.6c-15.9,19.5-32.2,11.5-32.2,27.7
		c0,7.3,12.3,12.5,14.3,10.2s-16.6-9.3,4.2-17.6C79.4,136.6,81,135.2,86.4,140.1z"/>
</g>
</svg>
