<svg id="Cat" xmlns="http://www.w3.org/2000/svg" width="871.4444" height="964.3889" viewBox="0 0 871.4444 964.3889"><defs><style>.cls-1{fill:none;stroke:#b5a4c2;stroke-linejoin:round;stroke-width:7px;}</style></defs><polygon class="cls-1" points="431.944 315.944 438.944 403.944 600.389 315.944 431.944 315.944"/><polygon class="cls-1" points="431.944 315.944 270.167 315.944 438.944 403.944 431.944 315.944"/><polygon class="cls-1" points="431.944 315.944 428.833 274.389 325.5 274.389 431.944 315.944"/><polygon class="cls-1" points="325.5 274.389 270.167 315.944 431.944 315.944 325.5 274.389"/><polygon class="cls-1" points="428.833 274.389 543.5 274.389 431.944 315.944 428.833 274.389"/><polygon class="cls-1" points="543.5 274.389 600.389 315.944 431.944 315.944 543.5 274.389"/><path class="cls-1" d="M371.2222,378.7778" transform="translate(-101.0556 -62.8333)"/><polygon class="cls-1" points="543.5 274.389 610.611 279.722 600.389 315.944 543.5 274.389"/><polygon class="cls-1" points="600.389 315.944 681.278 449.722 438.944 403.944 600.389 315.944"/><polygon class="cls-1" points="600.389 315.944 689.056 395.722 681.278 449.722 600.389 315.944"/><polygon class="cls-1" points="610.611 279.722 689.056 395.722 600.389 315.944 610.611 279.722"/><polygon class="cls-1" points="610.611 279.722 748.389 335.278 689.056 395.722 610.611 279.722"/><polygon class="cls-1" points="689.056 395.722 759.056 472.167 748.389 335.278 689.056 395.722"/><polygon class="cls-1" points="681.278 449.722 759.056 472.167 689.056 395.722 681.278 449.722"/><polygon class="cls-1" points="759.056 472.167 769.278 416.389 748.389 335.278 759.056 472.167"/><polygon class="cls-1" points="438.944 403.944 191.352 451.204 270.167 315.944 438.944 403.944"/><polygon class="cls-1" points="438.944 403.944 302.759 458.611 191.352 451.204 438.944 403.944"/><polygon class="cls-1" points="438.944 403.944 574.167 458.611 681.278 449.722 438.944 403.944"/><polygon class="cls-1" points="325.5 274.389 212.389 296.537 270.167 315.944 325.5 274.389"/><polygon class="cls-1" points="212.389 296.537 167.352 395.796 270.167 315.944 212.389 296.537"/><polygon class="cls-1" points="167.352 395.796 191.352 451.204 270.167 315.944 167.352 395.796"/><polygon class="cls-1" points="167.352 395.796 149.574 389.574 212.389 296.537 167.352 395.796"/><polygon class="cls-1" points="167.352 395.796 97.13 473.426 149.574 389.574 167.352 395.796"/><polygon class="cls-1" points="191.352 451.204 97.13 473.426 167.352 395.796 191.352 451.204"/><polygon class="cls-1" points="428.833 274.389 299.278 230.389 325.5 274.389 428.833 274.389"/><polygon class="cls-1" points="428.833 274.389 560.111 230.389 543.5 274.389 428.833 274.389"/><polygon class="cls-1" points="428.833 274.389 439.944 239.722 299.278 230.389 428.833 274.389"/><polygon class="cls-1" points="439.944 239.722 560.111 230.389 428.833 274.389 439.944 239.722"/><polygon class="cls-1" points="97.13 473.426 3.5 166.167 149.574 389.574 97.13 473.426"/><polygon class="cls-1" points="3.5 166.167 212.389 296.537 149.574 389.574 3.5 166.167"/><polygon class="cls-1" points="212.389 296.537 7.056 72.833 3.5 166.167 212.389 296.537"/><polygon class="cls-1" points="325.5 274.389 205.722 198.611 212.389 296.537 325.5 274.389"/><polygon class="cls-1" points="205.722 198.611 73.278 16.833 7.056 72.833 205.722 198.611"/><polygon class="cls-1" points="205.722 198.611 194.167 138.611 73.278 16.833 205.722 198.611"/><polygon class="cls-1" points="194.167 138.611 325.5 274.389 205.722 198.611 194.167 138.611"/><polygon class="cls-1" points="325.5 274.389 299.278 230.389 252.203 198.611 325.5 274.389"/><polygon class="cls-1" points="610.611 279.722 733.722 83.5 825.722 3.5 610.611 279.722"/><polygon class="cls-1" points="610.611 279.722 867.944 91.944 825.722 3.5 610.611 279.722"/><polygon class="cls-1" points="610.611 279.722 780.833 243.5 867.944 91.944 610.611 279.722"/><polygon class="cls-1" points="748.389 335.278 864.389 166.167 780.833 243.5 748.389 335.278"/><polygon class="cls-1" points="864.389 166.167 867.944 91.944 780.833 243.5 864.389 166.167"/><polygon class="cls-1" points="769.278 416.389 864.389 166.167 748.389 335.278 769.278 416.389"/><polygon class="cls-1" points="543.5 274.389 733.722 83.5 610.611 279.722 543.5 274.389"/><polygon class="cls-1" points="543.5 274.389 560.111 230.389 631.746 185.833 543.5 274.389"/><polygon class="cls-1" points="438.944 403.944 440.981 609.426 401.426 608.093 438.944 403.944"/><polygon class="cls-1" points="438.944 403.944 478.167 607.648 440.981 609.426 438.944 403.944"/><polygon class="cls-1" points="302.759 458.611 401.426 608.093 438.944 403.944 302.759 458.611"/><polygon class="cls-1" points="478.167 607.648 574.167 458.611 438.944 403.944 478.167 607.648"/><polygon class="cls-1" points="478.167 607.648 549.278 560.241 574.167 458.611 478.167 607.648"/><polygon class="cls-1" points="478.167 607.648 572.981 615.056 549.278 560.241 478.167 607.648"/><polygon class="cls-1" points="574.167 458.611 669.574 533.13 549.278 560.241 574.167 458.611"/><polygon class="cls-1" points="681.278 449.722 669.574 533.13 574.167 458.611 681.278 449.722"/><polygon class="cls-1" points="572.981 615.056 674.611 638.463 669.574 533.13 572.981 615.056"/><polygon class="cls-1" points="681.278 449.722 705.426 560.241 669.574 533.13 681.278 449.722"/><polygon class="cls-1" points="759.056 472.167 754.315 565.87 681.278 449.722 759.056 472.167"/><polygon class="cls-1" points="705.426 560.241 754.315 565.87 681.278 449.722 705.426 560.241"/><polygon class="cls-1" points="674.611 638.463 705.426 560.241 669.574 533.13 674.611 638.463"/><polygon class="cls-1" points="302.759 458.611 321.722 560.241 202.611 533.13 302.759 458.611"/><polygon class="cls-1" points="191.352 451.204 202.611 533.13 302.759 458.611 191.352 451.204"/><polygon class="cls-1" points="401.426 608.093 321.722 560.241 302.759 458.611 401.426 608.093"/><polygon class="cls-1" points="202.611 533.13 163.056 560.241 191.352 451.204 202.611 533.13"/><polygon class="cls-1" points="321.722 560.241 299.056 615.056 202.611 533.13 321.722 560.241"/><polygon class="cls-1" points="163.056 560.241 199.944 638.463 202.611 533.13 163.056 560.241"/><polygon class="cls-1" points="299.056 615.056 199.944 638.463 202.611 533.13 299.056 615.056"/><polygon class="cls-1" points="191.352 451.204 110.167 565.87 163.056 560.241 191.352 451.204"/><polygon class="cls-1" points="97.13 473.426 110.167 565.87 191.352 451.204 97.13 473.426"/><polygon class="cls-1" points="163.056 560.241 123.056 659.5 199.944 638.463 163.056 560.241"/><polygon class="cls-1" points="110.167 565.87 123.056 659.5 163.056 560.241 110.167 565.87"/><polygon class="cls-1" points="401.426 608.093 299.056 615.056 321.722 560.241 401.426 608.093"/><polygon class="cls-1" points="674.611 638.463 745.278 659.5 705.426 560.241 674.611 638.463"/><polygon class="cls-1" points="754.315 565.87 745.278 659.5 705.426 560.241 754.315 565.87"/><polygon class="cls-1" points="440.981 609.426 447.056 724.833 386.611 713.722 440.981 609.426"/><polygon class="cls-1" points="440.981 609.426 501.722 713.722 447.056 724.833 440.981 609.426"/><polygon class="cls-1" points="447.056 724.833 444.833 823.5 501.722 713.722 447.056 724.833"/><polygon class="cls-1" points="447.056 724.833 386.611 713.722 444.833 823.5 447.056 724.833"/><polygon class="cls-1" points="478.167 607.648 501.722 713.722 440.981 609.426 478.167 607.648"/><polygon class="cls-1" points="386.611 713.722 401.426 608.093 440.981 609.426 386.611 713.722"/><polygon class="cls-1" points="478.167 607.648 501.722 713.722 572.981 615.056 478.167 607.648"/><polygon class="cls-1" points="674.611 638.463 615.056 738.611 572.981 615.056 674.611 638.463"/><polygon class="cls-1" points="501.722 713.722 615.056 738.611 572.981 615.056 501.722 713.722"/><polygon class="cls-1" points="674.611 638.463 649.722 753.426 615.056 738.611 674.611 638.463"/><polygon class="cls-1" points="745.278 659.5 649.722 753.426 674.611 638.463 745.278 659.5"/><polygon class="cls-1" points="299.056 615.056 386.611 713.722 401.426 608.093 299.056 615.056"/><polygon class="cls-1" points="199.944 638.463 266.611 740.389 299.056 615.056 199.944 638.463"/><polygon class="cls-1" points="123.056 659.5 228.278 754.389 199.944 638.463 123.056 659.5"/><polygon class="cls-1" points="266.611 740.389 228.278 754.389 199.944 638.463 266.611 740.389"/><polygon class="cls-1" points="299.056 615.056 266.611 740.389 386.611 713.722 299.056 615.056"/><polygon class="cls-1" points="444.833 823.5 327.944 850.019 386.611 713.722 444.833 823.5"/><polygon class="cls-1" points="266.611 740.389 327.944 850.019 386.611 713.722 266.611 740.389"/><polygon class="cls-1" points="444.833 823.5 559.648 850.019 501.722 713.722 444.833 823.5"/><polygon class="cls-1" points="615.056 738.611 559.648 850.019 501.722 713.722 615.056 738.611"/><polygon class="cls-1" points="649.722 753.426 658.167 865.722 745.278 659.5 649.722 753.426"/><polygon class="cls-1" points="228.278 754.389 204.981 865.722 123.056 659.5 228.278 754.389"/><polygon class="cls-1" points="444.833 823.5 441.944 876.722 360.833 913.722 444.833 823.5"/><polygon class="cls-1" points="559.648 850.019 522.315 912.537 444.833 823.5 559.648 850.019"/><polygon class="cls-1" points="441.944 876.722 522.315 912.537 444.833 823.5 441.944 876.722"/><polygon class="cls-1" points="327.944 850.019 360.833 913.722 444.833 823.5 327.944 850.019"/><polygon class="cls-1" points="441.944 876.722 440.667 886.556 360.833 913.722 441.944 876.722"/><polygon class="cls-1" points="522.315 912.537 440.667 886.556 441.944 876.722 522.315 912.537"/><polygon class="cls-1" points="360.833 913.722 439.889 960.889 440.667 886.556 360.833 913.722"/><polygon class="cls-1" points="522.315 912.537 439.889 960.889 440.667 886.556 522.315 912.537"/><polygon class="cls-1" points="559.648 850.019 568.981 885.722 522.315 912.537 559.648 850.019"/><polygon class="cls-1" points="615.056 738.611 568.981 885.722 559.648 850.019 615.056 738.611"/><polygon class="cls-1" points="649.722 753.426 568.981 885.722 615.056 738.611 649.722 753.426"/><polygon class="cls-1" points="658.167 865.722 568.981 885.722 649.722 753.426 658.167 865.722"/><polygon class="cls-1" points="522.315 912.537 658.167 865.722 568.981 885.722 522.315 912.537"/><polygon class="cls-1" points="266.611 740.389 305.389 885.611 327.944 850.019 266.611 740.389"/><polygon class="cls-1" points="228.278 754.389 305.389 885.611 266.611 740.389 228.278 754.389"/><polygon class="cls-1" points="204.981 865.722 305.389 885.611 228.278 754.389 204.981 865.722"/><polygon class="cls-1" points="327.944 850.019 305.389 885.611 360.833 913.722 327.944 850.019"/><polygon class="cls-1" points="204.981 865.722 360.833 913.722 305.389 885.611 204.981 865.722"/><polygon class="cls-1" points="204.981 865.722 202.611 876.722 123.056 659.5 204.981 865.722"/><polygon class="cls-1" points="204.981 865.722 343.056 926.167 202.611 876.722 204.981 865.722"/><polygon class="cls-1" points="343.056 926.167 360.833 913.722 204.981 865.722 343.056 926.167"/><polygon class="cls-1" points="360.833 913.722 343.056 926.167 391.499 932.018 360.833 913.722"/><polygon class="cls-1" points="658.167 865.722 527.352 923.722 658.167 878.167 658.167 865.722"/><polygon class="cls-1" points="527.352 923.722 522.315 912.537 658.167 865.722 527.352 923.722"/><polygon class="cls-1" points="527.352 923.722 522.315 912.537 492.862 929.814 527.352 923.722"/><polygon class="cls-1" points="658.167 878.167 658.167 865.722 745.278 659.5 658.167 878.167"/><polygon class="cls-1" points="123.056 659.5 202.611 876.722 97.426 626.315 123.056 659.5"/><polygon class="cls-1" points="110.167 565.87 97.426 626.315 123.056 659.5 110.167 565.87"/><polygon class="cls-1" points="97.13 473.426 97.426 626.315 110.167 565.87 97.13 473.426"/><polygon class="cls-1" points="97.13 473.426 97.426 626.315 90.358 451.204 97.13 473.426"/><polygon class="cls-1" points="745.278 659.5 759.056 626.315 754.315 565.87 745.278 659.5"/><polygon class="cls-1" points="759.056 626.315 754.315 565.87 759.056 472.167 759.056 626.315"/><polygon class="cls-1" points="759.056 626.315 769.278 416.389 759.056 472.167 759.056 626.315"/><polygon class="cls-1" points="205.722 198.611 7.056 72.833 212.389 296.537 205.722 198.611"/><polygon class="cls-1" points="780.833 243.5 610.611 279.722 748.389 335.278 780.833 243.5"/><polygon class="cls-1" points="549.278 560.241 572.981 615.056 669.574 533.13 549.278 560.241"/></svg>