<?xml version="1.0" encoding="utf-8"?>
<!-- Generator: Adobe Illustrator 25.0.0, SVG Export Plug-In . SVG Version: 6.00 Build 0)  -->
<svg version="1.1" id="Layer_1" xmlns="http://www.w3.org/2000/svg" xmlns:xlink="http://www.w3.org/1999/xlink" x="0px" y="0px"
	 viewBox="0 0 526 1068" style="enable-background:new 0 0 526 1068;" xml:space="preserve">
<style type="text/css">
	.st0{fill:#FFFFFF;}
	.st1{fill:#1D1D1F;}
</style>
<g>
	<path class="st0" d="M503.8,194V63c0-24.9-20.1-45-45-45h-390c-24.9,0-45,20.1-45,45v136.5h-5.5v128h5.5V385h-5.5v66h5.5v554
		c0,24.9,20.1,45,45,45h390c24.9,0,45-20.1,45-45V256h4v-62H503.8z"/>
	<path class="st1" d="M463.7,1023H62.3c-15.1,0-27.3-12.2-27.3-27.3v-926c0-15.1,12.2-27.3,27.3-27.3h401.5
		c15.1,0,27.3,12.2,27.3,27.3v926C491,1010.8,478.8,1023,463.7,1023z"/>
	<path class="st0" d="M452.4,100.8h-44.8c-12.6,0-22.7-10.2-22.7-22.7l0,0c0-12.6,10.2-22.7,22.7-22.7h44.8
		c12.6,0,22.7,10.2,22.7,22.7l0,0C475.1,90.6,464.9,100.8,452.4,100.8z"/>
	<circle class="st1" cx="406.9" cy="78" r="8.5"/>
	<circle class="st1" cx="452.9" cy="78" r="8.5"/>
</g>
</svg>
