<?xml version="1.0" encoding="utf-8"?>
<!-- Generator: Adobe Illustrator 25.0.0, SVG Export Plug-In . SVG Version: 6.00 Build 0)  -->
<svg version="1.1" id="Capa_1" xmlns="http://www.w3.org/2000/svg" xmlns:xlink="http://www.w3.org/1999/xlink" x="0px" y="0px"
	 viewBox="0 0 512 512" style="enable-background:new 0 0 512 512;" xml:space="preserve">
<style type="text/css">
	.st0{display:none;fill:#FFFFFF;}
	.st1{fill:#FFFFFF;}
	.st2{fill:none;stroke:#FFFFFF;stroke-width:3;stroke-miterlimit:10;}
</style>
<g>
	<g>
		<g>
			<path class="st0" d="M66.6,185.2c-5.6-1.8-11.6,1.2-13.5,6.8c-7,20.9-10.5,42.4-10.5,64s3.5,43.2,10.5,64
				c1.5,4.5,5.7,7.3,10.1,7.3c1.1,0,2.2-0.2,3.4-0.5c5.6-1.9,8.6-7.9,6.7-13.5c-6.2-18.7-9.4-38-9.4-57.3s3.2-38.6,9.4-57.3
				C75.2,193.1,72.2,187.1,66.6,185.2z"/>
			<path class="st1" d="M159.3,90.3c3.1,2.2,7.2,2.5,10.6,1c48-22.1,102.8-22.1,150.8,0c1.4,0.7,2.9,1,4.5,1h0.2
				c6.2,0.5,10.9-4.7,10.9-10.7c0-1.4-0.3-2.7-0.7-3.9l-4.9-57.3c-0.5-5.5-5.1-9.7-10.6-9.7H170.7c-5.5,0-10.2,4.2-10.6,9.7
				l-5.2,60.3C154.5,84.5,156.2,88.2,159.3,90.3z"/>
			<path class="st0" d="M21.3,256c0-23.9,3.9-47.7,11.6-70.8c1.9-5.6-1.2-11.6-6.7-13.5c-5.5-1.8-11.6,1.2-13.5,6.7
				C4.3,203.7,0,229.8,0,256s4.3,52.3,12.7,77.5c1.5,4.5,5.7,7.3,10.1,7.3c1.1,0,2.2-0.2,3.4-0.6c5.6-1.9,8.6-7.9,6.7-13.5
				C25.3,303.7,21.3,279.9,21.3,256z"/>
			<path class="st1" d="M331.3,421.7c-3.1-2.2-7.2-2.6-10.6-1c-48,22.1-102.8,22.1-150.8,0c-3.4-1.6-7.5-1.2-10.6,1
				s-4.8,5.8-4.5,9.6l5.2,60.3c0.5,5.5,5.1,9.7,10.6,9.7H320c5.5,0,10.2-4.2,10.6-9.7l5.2-60.3C336.1,427.5,334.4,423.8,331.3,421.7
				z"/>
			<path class="st2" d="M245.3,96c-88.2,0-160,71.8-160,160s71.8,160,160,160s160-71.8,160-160S333.6,96,245.3,96z M284.9,295.6
				c-2.1,2.1-4.8,3.1-7.6,3.1s-5.5-1-7.6-3.1l-32-32c-2-2-3.1-4.7-3.1-7.6v-64c0-5.9,4.8-10.7,10.7-10.7S256,186.1,256,192v59.6
				l28.9,28.9C289,284.6,289,291.4,284.9,295.6z"/>
			<path class="st0" d="M445.4,185.2c-5.6,1.9-8.6,7.9-6.7,13.5c6.2,18.7,9.4,38,9.4,57.3s-3.2,38.6-9.4,57.3
				c-1.9,5.6,1.2,11.6,6.7,13.5c1.1,0.4,2.2,0.5,3.4,0.5c4.5,0,8.6-2.8,10.1-7.3c7-20.9,10.5-42.5,10.5-64s-3.5-43.2-10.5-64
				C457,186.3,451,183.4,445.4,185.2z"/>
			<path class="st0" d="M499.3,178.5c-1.9-5.6-7.9-8.6-13.5-6.7c-5.6,1.9-8.6,7.9-6.7,13.5c7.7,23.1,11.6,46.9,11.6,70.8
				s-3.9,47.7-11.6,70.8c-1.9,5.6,1.2,11.6,6.7,13.5c1.1,0.4,2.2,0.6,3.4,0.6c4.5,0,8.6-2.8,10.1-7.3c8.4-25.2,12.7-51.3,12.7-77.5
				S507.7,203.7,499.3,178.5z"/>
			<path class="st1" d="M416,234.7c-5.9,0-10.7,4.8-10.7,10.7V256v10.7c0,5.9,4.8,10.7,10.7,10.7s10.7-4.8,10.7-10.7v-21.3
				C426.7,239.4,421.9,234.7,416,234.7z"/>
		</g>
	</g>
</g>
</svg>
